<svg width="96" height="96" viewBox="0 0 96 96" fill="none" xmlns="http://www.w3.org/2000/svg">
<path d="M86.1005 38.1005L57.8995 9.89949C52.4322 4.43215 43.5678 4.43216 38.1005 9.8995L9.89949 38.1005C4.43215 43.5678 4.43216 52.4322 9.8995 57.8995L38.1005 86.1005C43.5678 91.5678 52.4322 91.5678 57.8995 86.1005L86.1005 57.8995C91.5678 52.4322 91.5678 43.5678 86.1005 38.1005Z" fill="#EE6C4D"/>
<path d="M77.3431 42.3431L53.6569 18.6569C50.5327 15.5327 45.4673 15.5327 42.3431 18.6569L18.6569 42.3431C15.5327 45.4673 15.5327 50.5327 18.6569 53.6569L42.3431 77.3431C45.4673 80.4673 50.5327 80.4673 53.6569 77.3431L77.3431 53.6569C80.4673 50.5327 80.4673 45.4673 77.3431 42.3431Z" fill="#E0FBFC"/>
<path d="M66.0503 43.0503L52.9497 29.9497C50.2161 27.2161 45.7839 27.2161 43.0503 29.9497L29.9497 43.0503C27.2161 45.7839 27.2161 50.2161 29.9497 52.9497L43.0503 66.0503C45.7839 68.7839 50.2161 68.7839 52.9497 66.0503L66.0503 52.9497C68.7839 50.2161 68.7839 45.7839 66.0503 43.0503Z" fill="#293241"/>
</svg>
